<svg xmlns="http://www.w3.org/2000/svg" width="200" height="200" viewBox="0 0 200 200"><g fill="#AFD6D4"><path d="M77.3 105.8c-2.2-.5-4.5-.7-6.8-.8l-16.4-.1c-1 0-1.3.3-1.3 1.3v19.8c0 .3 0 1 .1 1h1.3c2.9 0 5.9.2 8.8.1 3.9-.1 7.7 0 11.6-.2 2.8-.2 5.4-1.1 7.3-3.3 2.6-3 2.8-6.5 2.5-10.2-.4-4-3.3-6.8-7.1-7.6zM138.3 90.3c-8.9-.1-12.6 6.7-13.3 12.7h26.7c-.1-7-5.2-12.6-13.4-12.7zM54 91.2h8.7c2.5 0 5 .1 7.5 0 1.8-.1 3.7-.3 5.5-.6 2.5-.5 4.9-1.6 6.1-4.1 1-2.1 1.2-4.4.8-6.7-.5-3.1-2.2-5.3-5.3-6-2.3-.5-4.6-.9-7-1-5.5-.2-11-.1-16.5-.1-.9 0-1 .3-1 1.1v16.3c.1.9.4 1.1 1.2 1.1zM186.6 46.4c0-17.9-14.5-32.4-32.4-32.4h-109.2c-17.9 0-32.4 14.5-32.4 32.4v106.1c0 17.9 14.5 32.4 32.4 32.4h109.1c17.9 0 32.4-14.5 32.4-32.4v-106.1zm-65 15.6h33.4v7.5c0 .2-.3.4-.6.5-.2.1-.5 0-.7 0h-32.1v-8zm-23.2 68c-2.7 4.3-6.3 7.5-11 9.3-5.4 2.1-11.1 2.4-16.9 2.5h-35.5c-.5 0-1.4 0-1.4.1v-83.8s.9.1 1.4.1h38.2c4.7 0 9.4.5 13.8 2.3 5.3 2.2 9.3 5.8 11.2 11.3 2 6 2 12-.8 17.8-1.4 2.8-3.7 4.8-6.4 6.3-.5.3-.9.5-1.6.9 1.2.6 2.3 1.1 3.4 1.7 5.7 3.2 8.5 8.4 9.2 14.8.7 6-.4 11.6-3.6 16.7zm70.2-16.3c-1 0-.8.1-1.1.1l-41.9.2h-1.2c.1 1 .2 2 .4 3.1 1.1 6.7 5.8 10.9 12.6 11.4 2.8.2 5.6 0 8.2-1.2 2-.9 3.7-2.3 4.8-4.3.5-1 1.2-1.2 2.4-1.2 4.4.1 8.7.2 13.1.2h1.4c-.2 1-.3 1.7-.6 2.4-1.7 4.6-4.7 8.2-8.5 11.1-5.6 4.3-12.2 5.7-19.1 5.7-7.9 0-14.9-2.4-21.1-7.3-4.3-3.4-6.8-8-8-13.3-1.8-7.8-1.7-15.7.5-23.5 1.7-5.8 4.9-10.5 9.8-14.1 5.8-4.2 12.4-5.7 19.4-5.5 5.3.2 10.4 1.3 15 3.9 3.7 2.1 6.5 5.1 8.7 8.7 2.9 4.5 4.4 9.5 4.7 14.8 0 .3-.5.7.5 1v7.8z"/></g></svg>