<?xml version="1.0" encoding="utf-8"?>
<!-- Generator: Adobe Illustrator 19.1.0, SVG Export Plug-In . SVG Version: 6.00 Build 0)  -->
<svg version="1.1" id="Layer_1" xmlns="http://www.w3.org/2000/svg" xmlns:xlink="http://www.w3.org/1999/xlink" x="0px" y="0px"
	 width="200px" height="200px" viewBox="0 0 200 200" enable-background="new 0 0 200 200" xml:space="preserve">
<g>
	<path fill="#AFD6D4" d="M77.3,105.8c-2.2-0.5-4.5-0.7-6.8-0.8c-5.5-0.1-10.9,0-16.4-0.1c-1,0-1.3,0.3-1.3,1.3c0,6.7,0,13.2,0,19.8
		c0,0.3,0,1,0.1,1c0.5,0,0.9,0,1.3,0c2.9,0,5.9,0.2,8.8,0.1c3.9-0.1,7.7,0,11.6-0.2c2.8-0.2,5.4-1.1,7.3-3.3c2.6-3,2.8-6.5,2.5-10.2
		C84,109.4,81.1,106.6,77.3,105.8z"/>
	<path fill="#AFD6D4" d="M138.3,90.3c-8.9-0.1-12.6,6.7-13.3,12.7c8.9,0,17.8,0,26.7,0C151.6,96,146.5,90.4,138.3,90.3z"/>
	<path fill="#AFD6D4" d="M54,91.2c2.9,0,5.8,0,8.7,0c2.5,0,5,0.1,7.5,0c1.8-0.1,3.7-0.3,5.5-0.6c2.5-0.5,4.9-1.6,6.1-4.1
		c1-2.1,1.2-4.4,0.8-6.7c-0.5-3.1-2.2-5.3-5.3-6c-2.3-0.5-4.6-0.9-7-1c-5.5-0.2-11-0.1-16.5-0.1c-0.9,0-1,0.3-1,1.1
		c0,5.4,0,10.9,0,16.3C52.9,91,53.2,91.2,54,91.2z"/>
	<path fill="#AFD6D4" d="M186.6,46.4c0-17.9-14.5-32.4-32.4-32.4H45c-17.9,0-32.4,14.5-32.4,32.4v106.1c0,17.9,14.5,32.4,32.4,32.4
		h109.1c17.9,0,32.4-14.5,32.4-32.4V46.4z M121.6,62c11,0,22.2,0,33.4,0c0,2,0,5,0,7.5c0,0.2-0.3,0.4-0.6,0.5c-0.2,0.1-0.5,0-0.7,0
		c-10.3,0-20.7,0-31,0c-0.4,0-1.1,0-1.1,0C121.6,67,121.6,64,121.6,62z M98.4,130c-2.7,4.3-6.3,7.5-11,9.3
		c-5.4,2.1-11.1,2.4-16.9,2.5c-11.8,0-23.7,0-35.5,0c-0.5,0-1.4,0-1.4,0.1c0-27.9,0-55.9,0-83.8c0,0,0.9,0.1,1.4,0.1
		c12.7,0,25.5,0,38.2,0c4.7,0,9.4,0.5,13.8,2.3c5.3,2.2,9.3,5.8,11.2,11.3c2,6,2,12-0.8,17.8c-1.4,2.8-3.7,4.8-6.4,6.3
		c-0.5,0.3-0.9,0.5-1.6,0.9c1.2,0.6,2.3,1.1,3.4,1.7c5.7,3.2,8.5,8.4,9.2,14.8C102.7,119.3,101.6,124.9,98.4,130z M168.6,113.7
		c-1,0-0.8,0.1-1.1,0.1c-13.9,0-28,0.2-41.9,0.2c-0.3,0-0.6,0-1.2,0c0.1,1,0.2,2,0.4,3.1c1.1,6.7,5.8,10.9,12.6,11.4
		c2.8,0.2,5.6,0,8.2-1.2c2-0.9,3.7-2.3,4.8-4.3c0.5-1,1.2-1.2,2.4-1.2c4.4,0.1,8.7,0.2,13.1,0.2c0.4,0,0.8,0,1.4,0
		c-0.2,1-0.3,1.7-0.6,2.4c-1.7,4.6-4.7,8.2-8.5,11.1c-5.6,4.3-12.2,5.7-19.1,5.7c-7.9,0-14.9-2.4-21.1-7.3c-4.3-3.4-6.8-8-8-13.3
		c-1.8-7.8-1.7-15.7,0.5-23.5c1.7-5.8,4.9-10.5,9.8-14.1c5.8-4.2,12.4-5.7,19.4-5.5c5.3,0.2,10.4,1.3,15,3.9
		c3.7,2.1,6.5,5.1,8.7,8.7c2.9,4.5,4.4,9.5,4.7,14.8c0,0.3-0.5,0.7,0.5,1C168.6,108.7,168.6,111.2,168.6,113.7z"/>
</g>
</svg>
