<svg xmlns="http://www.w3.org/2000/svg" width="200" height="200" viewBox="0 0 200 200"><g fill="#fff"><path d="M14.6 160.5v-81.3h49.3c-.3.4-.5.6-.7.8l-.6.7c-3.6 4.7-5.2 10.2-5.9 16-.6 4.5-.6 8.9-.1 13.4.2 2.2.4 4.5 1.1 6.6 1.4 4.6 3.6 8.9 6.4 12.8 8.6 12 20.4 17.9 35.1 18.4 3.4.1 6.8-.5 10.1-1.3 10.5-2.4 19.3-7.6 25.7-16.3 6.1-8.1 9.3-17.2 8.8-27.5-.4-8.4-3.1-16.1-7.7-23.2-.1-.1-.1-.3-.2-.5h49.6v76.39999999999999c0 3.3-.3 6.5-1 9.7-1.4 6.2-4.1 11.8-8.8 16.1-5.6 5.1-12.2 7.8-19.7 7.8-36.4.1-72.8 0-109.2 0-2.8 0-5.6-.3-8.4-.7-5.9-1-11-3.5-15.2-7.9-4.3-4.5-6.6-10.1-7.8-16.2-.4-1.1-.6-2.4-.8-3.8zM61.7 16.7h71.6l.8.1h16.1c2.8 0 5.6 0 8.4.6 8.9 2 16 6.5 20.9 14.2 4 6.3 6 13.1 5.8 20.6-.1 5.7-.2 11.4-.2 17.1l-.1 3.8h-53.8c-.4 0-.9-.2-1.2-.4-3.1-2.6-6.3-4.9-9.8-6.8-8-4.3-16.6-6.2-25.7-5-9.5 1.3-17.7 5.3-25.1 11.3-.7.6-1.3.8-2.2.8-5.7-.2-11.4-.3-17.2-.4l-21.6-.5-13.9-.3v-26.6l.1-.6c.3-2.2.5-4.5 1-6.7 1.1-4.7 3.3-8.8 7.2-11.8 1.7-1.4 3.7-2.4 6-3v35.7h6.8v-.6c0-6.3.1-12.6.1-19v-19.599999999999998c0-.2.1-.5.3-.5 1.4-.5 2.9-.9 4.4-1.3l.5 41h6.6v-2.2c0-4.7 0-9.4.1-14.1l.1-10.5c0-5.2 0-10.3.1-15.5h4.7v.5c0 7.3.1 14.6.1 22 0 6.3 0 12.7.1 19v1c2.3-.1 4.5-.2 6.6-.3v-42c.8.1 1.6 0 2.4 0zm93.6 14.2h-7.5c-4.3 0-7.5 3.3-7.5 7.6v14.9c0 4.3 3.3 7.6 7.6 7.6h15c4.2 0 7.5-3.3 7.6-7.5 0-5 .1-10.1 0-15.1 0-4.3-3.4-7.5-7.6-7.5h-7.6zM133.5 103.9c0 18.6-15 33.5-33.8 33.5-18.4 0-33.3-15.2-33.3-33.8 0-18.5 15.1-33.4 33.8-33.4 18.4.1 33.3 15.2 33.3 33.7zm-33.5 25.4c13.9 0 25.1-11.1 25.4-24.8.3-14.2-11-25.7-24.9-26-14.1-.3-25.9 11.1-25.9 25.3 0 14.1 11.3 25.5 25.4 25.5z"/></g></svg>