<?xml version="1.0" encoding="utf-8"?>
<!-- Generator: Adobe Illustrator 19.1.0, SVG Export Plug-In . SVG Version: 6.00 Build 0)  -->
<svg version="1.1" id="Layer_1" xmlns="http://www.w3.org/2000/svg" xmlns:xlink="http://www.w3.org/1999/xlink" x="0px" y="0px"
	 width="200px" height="200px" viewBox="0 0 200 200" enable-background="new 0 0 200 200" xml:space="preserve">
<path fill="#AFD6D4" d="M154.5,185.7h-109c-17.8,0-32.4-14.6-32.4-32.4V46.7c0-17.8,14.6-32.4,32.4-32.4h109
	c17.8,0,32.4,14.6,32.4,32.4v106.6C186.9,171.1,172.3,185.7,154.5,185.7z"/>
<g>
	<path fill="#FFFFFF" d="M31.7,149c0-21.7,0-43.4,0-65c0.3,0,0.5,0,0.8,0c12.6,0,25.2,0,37.8,0c0.2,0,0.4,0,0.8,0
		c-0.2,0.3-0.4,0.5-0.5,0.7c-0.2,0.2-0.3,0.4-0.5,0.6c-2.9,3.8-4.2,8.2-4.8,12.8c-0.5,3.6-0.5,7.1-0.1,10.7c0.2,1.8,0.3,3.6,0.9,5.3
		c1.1,3.7,2.9,7.1,5.1,10.3c6.9,9.6,16.3,14.3,28,14.7c2.7,0.1,5.4-0.4,8.1-1c8.4-1.9,15.4-6.1,20.6-13.1c4.8-6.5,7.4-13.8,7.1-22
		c-0.3-6.7-2.5-12.9-6.2-18.5c-0.1-0.1-0.1-0.2-0.2-0.4c13.2,0,26.4,0,39.6,0c0,0.3,0,0.6,0,0.9c0,20.1,0,40.2,0,60.2
		c0,2.6-0.3,5.2-0.8,7.8c-1.1,5-3.2,9.4-7.1,12.9c-4.4,4.1-9.7,6.2-15.7,6.2c-29.1,0-58.2,0-87.4,0c-2.2,0-4.5-0.2-6.7-0.6
		c-4.7-0.8-8.8-2.8-12.1-6.3c-3.5-3.6-5.3-8.1-6.2-12.9C32,151.1,31.8,150,31.7,149z"/>
	<path fill="#FFFFFF" d="M69.3,33.9c19.1,0,38.2,0,57.2,0c0.2,0,0.4,0.1,0.6,0.1c4.3,0,8.6,0,12.9,0c2.2,0,4.5,0,6.7,0.5
		c7.1,1.6,12.8,5.2,16.7,11.4c3.2,5,4.8,10.5,4.7,16.5c-0.1,4.6-0.1,9.1-0.2,13.7c0,1-0.1,2-0.1,3.1c-0.3,0-0.4,0-0.6,0
		c-14.1,0-28.2,0-42.4,0c-0.3,0-0.7-0.1-1-0.4c-2.4-2-5-3.9-7.8-5.4c-6.4-3.5-13.3-5-20.5-4c-7.6,1-14.2,4.2-20,9.1
		c-0.5,0.4-1,0.7-1.7,0.7c-4.6-0.1-9.1-0.2-13.7-0.3c-5.8-0.1-11.5-0.3-17.3-0.4c-3.7-0.1-7.4-0.2-11.1-0.3c0-7.1,0-14.2,0-21.2
		c0-0.2,0.1-0.3,0.1-0.5c0.3-1.8,0.4-3.6,0.8-5.3c0.9-3.8,2.6-7,5.7-9.4c1.4-1.1,2.9-1.9,4.8-2.4c0,9.5,0,19,0,28.5
		c1.9,0,3.6,0,5.4,0c0-0.2,0-0.3,0-0.5c0-5.1,0.1-10.1,0.1-15.2c0-4.7,0-9.4,0-14.2c0-0.5,0-1,0-1.5c0-0.1,0.1-0.4,0.2-0.4
		c1.2-0.4,2.3-0.7,3.5-1.1c0.1,11,0.3,21.8,0.4,32.8c1.8,0,3.5,0,5.2,0c0-0.6,0-1.2,0-1.7c0-3.8,0-7.5,0.1-11.3c0-2.8,0-5.6,0.1-8.4
		c0-4.1,0-8.3,0.1-12.4c1.2,0,2.5,0,3.7,0c0,0.1,0,0.3,0,0.4c0,5.9,0.1,11.7,0.1,17.6c0,5.1,0,10.2,0,15.2c0,0.3,0,0.5,0,0.8
		c1.8-0.1,3.6-0.2,5.3-0.2c0-11.3,0-22.4,0-33.6C68,34,68.7,33.9,69.3,33.9z M144.1,45.3c-2,0-4,0-6,0c-3.4,0-6,2.6-6,6
		c0,4,0,8,0,11.9c0,3.4,2.6,6.1,6,6.1c4,0,8,0,12,0c3.4,0,6-2.6,6.1-6c0-4,0-8.1,0-12.1c0-3.4-2.7-6-6.1-6
		C148.1,45.3,146.1,45.3,144.1,45.3z"/>
	<path fill="#FFFFFF" d="M126.8,103.7c0,14.9-12,26.8-27.1,26.8c-14.7,0-26.7-12.1-26.6-27c0-14.8,12.1-26.7,27.1-26.7
		C114.8,76.8,126.8,88.9,126.8,103.7z M99.9,123.9c11.1,0,20.1-8.9,20.3-19.8c0.3-11.3-8.8-20.6-19.9-20.8
		c-11.3-0.2-20.7,8.9-20.7,20.2C79.6,114.8,88.7,123.9,99.9,123.9z"/>
</g>
</svg>
