<svg xmlns="http://www.w3.org/2000/svg" width="200" height="200" viewBox="0 0 200 200"><path fill="#AFD6D4" d="M154.5 185.7h-109c-17.8 0-32.4-14.6-32.4-32.4v-106.6c0-17.8 14.6-32.4 32.4-32.4h109c17.8 0 32.4 14.6 32.4 32.4v106.6c0 17.8-14.6 32.4-32.4 32.4z"/><path d="M31.7 149v-65h39.4c-.2.3-.4.5-.5.7l-.5.6c-2.9 3.8-4.2 8.2-4.8 12.8-.5 3.6-.5 7.1-.1 10.7.2 1.8.3 3.6.9 5.3 1.1 3.7 2.9 7.1 5.1 10.3 6.9 9.6 16.3 14.3 28 14.7 2.7.1 5.4-.4 8.1-1 8.4-1.9 15.4-6.1 20.6-13.1 4.8-6.5 7.4-13.8 7.1-22-.3-6.7-2.5-12.9-6.2-18.5-.1-.1-.1-.2-.2-.4h39.6v61.1c0 2.6-.3 5.2-.8 7.8-1.1 5-3.2 9.4-7.1 12.9-4.4 4.1-9.7 6.2-15.7 6.2h-87.4c-2.2 0-4.5-.2-6.7-.6-4.7-.8-8.8-2.8-12.1-6.3-3.5-3.6-5.3-8.1-6.2-12.9-.2-1.2-.4-2.3-.5-3.3zm37.6-115.1h57.2l.6.1h12.9c2.2 0 4.5 0 6.7.5 7.1 1.6 12.8 5.2 16.7 11.4 3.2 5 4.8 10.5 4.7 16.5l-.2 13.7c0 1-.1 2-.1 3.1h-43c-.3 0-.7-.1-1-.4-2.4-2-5-3.9-7.8-5.4-6.4-3.5-13.3-5-20.5-4-7.6 1-14.2 4.2-20 9.1-.5.4-1 .7-1.7.7l-13.7-.3-17.3-.4-11.1-.3v-21.2l.1-.5c.3-1.8.4-3.6.8-5.3.9-3.8 2.6-7 5.7-9.4 1.4-1.1 2.9-1.9 4.8-2.4v28.5h5.4v-.5l.1-15.2v-15.7c0-.1.1-.4.2-.4l3.5-1.1.4 32.8h5.2v-1.7c0-3.8 0-7.5.1-11.3 0-2.8 0-5.6.1-8.4 0-4.1 0-8.3.1-12.4h3.7v.4l.1 17.6v16c1.8-.1 3.6-.2 5.3-.2v-33.6c.7-.2 1.4-.3 2-.3zm74.8 11.4h-6c-3.4 0-6 2.6-6 6v11.9c0 3.4 2.6 6.1 6 6.1h12c3.4 0 6-2.6 6.1-6v-12.1c0-3.4-2.7-6-6.1-6-2 .1-4 .1-6 .1zm-17.3 58.4c0 14.9-12 26.8-27.1 26.8-14.7 0-26.7-12.1-26.6-27 0-14.8 12.1-26.7 27.1-26.7 14.6 0 26.6 12.1 26.6 26.9zm-26.9 20.2c11.1 0 20.1-8.9 20.3-19.8.3-11.3-8.8-20.6-19.9-20.8-11.3-.2-20.7 8.9-20.7 20.2 0 11.3 9.1 20.4 20.3 20.4z" fill="#fff"/></svg>