<svg xmlns="http://www.w3.org/2000/svg" width="200" height="200" viewBox="0 0 200 200"><path d="M187.8 45.4c0-17.9-14.5-32.4-32.4-32.4h-109.2c-17.9 0-32.4 14.5-32.4 32.4v106.1c0 17.9 14.5 32.4 32.4 32.4h109.1c17.9 0 32.4-14.5 32.4-32.4v-106.1zm-109 97.6h-20v-69h20v69zm-9.7-78.7c-5.3.2-9.8-4.2-10-9.6-.2-5.5 4.1-10 9.7-10.2 5.3-.2 9.9 4.3 10.1 9.7 0 5.4-4.4 10-9.8 10.1zm78.7 77.7v1h-20v-1.1l.2-37.6c0-4.8-2.4-8.3-6.7-9.7-5.7-1.9-11.8 1.8-12.7 7.8-.1.9 0 1.8 0 2.6l.2 37v1h-20v-69h20v11.9s0 .1.1.1l1.8-2.4c2.4-3 5.1-5.6 8.5-7.6 4.4-2.6 9-2.4 13.6-.6 8.5 3.4 13.1 10 14.8 18.8.4 2 .3 4.1.3 6.2 0 14-.1 27.8-.1 41.6z" fill="#AFD6D4"/></svg>