<svg xmlns="http://www.w3.org/2000/svg" width="200" height="200" viewBox="0 0 200 200"><path fill="#AFD6D4" d="M154.8 184.7h-109c-17.8 0-32.4-14.6-32.4-32.4v-106.6c0-17.8 14.6-32.4 32.4-32.4h109c17.8 0 32.4 14.6 32.4 32.4v106.6c0 17.8-14.6 32.4-32.4 32.4z"/><path d="M148 143.4h-19.9v-39.1c0-4.8-2.5-8.3-6.8-9.7-5.7-1.9-11.9 1.8-12.8 7.8-.1.9-.2 1.8-.2 2.6v38.5h-19.7v-69.1h19.7v11.7l.3.1 1.9-2.4c2.4-3 5.1-5.6 8.5-7.6 4.4-2.6 9.1-2.4 13.6-.6 8.5 3.4 13.1 10 14.8 18.8.4 2 .5 4.1.5 6.2v41.4c.1.4.1.9.1 1.4zm-69.3 0h-19.8v-69.2h19.8v69.2zm-10-98.8c5.3-.2 9.9 4.3 10.1 9.7.2 5.3-4.3 9.9-9.7 10.1-5.3.2-9.8-4.2-10-9.6-.3-5.5 4.1-10.1 9.6-10.2z" fill="#fff"/></svg>