<?xml version="1.0" encoding="utf-8"?>
<!-- Generator: Adobe Illustrator 19.1.0, SVG Export Plug-In . SVG Version: 6.00 Build 0)  -->
<svg version="1.1" id="Layer_1" xmlns="http://www.w3.org/2000/svg" xmlns:xlink="http://www.w3.org/1999/xlink" x="0px" y="0px"
	 width="200px" height="200px" viewBox="0 0 200 200" enable-background="new 0 0 200 200" xml:space="preserve">
<path fill="#AFD6D4" d="M154.8,184.7h-109c-17.8,0-32.4-14.6-32.4-32.4V45.7c0-17.8,14.6-32.4,32.4-32.4h109
	c17.8,0,32.4,14.6,32.4,32.4v106.6C187.2,170.1,172.6,184.7,154.8,184.7z"/>
<g>
	<path fill="#FFFFFF" d="M148,143.4c-6.7,0-13.2,0-19.9,0c0-0.5,0-1,0-1.5c0-12.5,0-25.1,0-37.6c0-4.8-2.5-8.3-6.8-9.7
		c-5.7-1.9-11.9,1.8-12.8,7.8c-0.1,0.9-0.2,1.8-0.2,2.6c0,12.3,0,24.7,0,37c0,0.5,0,0.9,0,1.5c-6.6,0-13.1,0-19.7,0
		c0-23,0-46,0-69.1c6.5,0,13,0,19.7,0c0,3.9,0,7.8,0,11.7c0.1,0,0.2,0.1,0.3,0.1c0.6-0.8,1.3-1.6,1.9-2.4c2.4-3,5.1-5.6,8.5-7.6
		c4.4-2.6,9.1-2.4,13.6-0.6c8.5,3.4,13.1,10,14.8,18.8c0.4,2,0.5,4.1,0.5,6.2c0,13.8,0,27.6,0,41.4C148,142.4,148,142.9,148,143.4z"
		/>
	<path fill="#FFFFFF" d="M78.7,143.4c-6.7,0-13.2,0-19.8,0c0-23.1,0-46.1,0-69.2c6.6,0,13.1,0,19.8,0
		C78.7,97.3,78.7,120.3,78.7,143.4z"/>
	<path fill="#FFFFFF" d="M68.7,44.6c5.3-0.2,9.9,4.3,10.1,9.7c0.2,5.3-4.3,9.9-9.7,10.1c-5.3,0.2-9.8-4.2-10-9.6
		C58.8,49.3,63.2,44.7,68.7,44.6z"/>
</g>
</svg>
